TITLE ""
FILE "P1Q_t_1510-1519.mp3" MP3
  TRACK 01 AUDIO
    TITLE "P1Q_t_1510-1519_01"
    INDEX 01 00:00:00
  TRACK 02 AUDIO
    TITLE "P1Q_t_1510-1519_02"
    INDEX 01 00:01:23
  TRACK 03 AUDIO
    TITLE "P1Q_t_1510-1519_03"
    INDEX 01 00:01:47
  TRACK 04 AUDIO
    TITLE "P1Q_t_1510-1519_04"
    INDEX 01 00:04:06
  TRACK 05 AUDIO
    TITLE "P1Q_t_1510-1519_05"
    INDEX 01 00:04:26
  TRACK 06 AUDIO
    TITLE "P1Q_t_1510-1519_06"
    INDEX 01 00:07:48
  TRACK 07 AUDIO
    TITLE "P1Q_t_1510-1519_07"
    INDEX 01 00:08:18
  TRACK 08 AUDIO
    TITLE "P1Q_t_1510-1519_08"
    INDEX 01 00:09:21
  TRACK 09 AUDIO
    TITLE "P1Q_t_1510-1519_09"
    INDEX 01 00:09:41
  TRACK 10 AUDIO
    TITLE "P1Q_t_1510-1519_10"
    INDEX 01 00:12:31
  TRACK 11 AUDIO
    TITLE "P1Q_t_1510-1519_11"
    INDEX 01 00:12:51
  TRACK 12 AUDIO
    TITLE "P1Q_t_1510-1519_12"
    INDEX 01 00:17:26
  TRACK 13 AUDIO
    TITLE "P1Q_t_1510-1519_13"
    INDEX 01 00:17:71
  TRACK 14 AUDIO
    TITLE "P1Q_t_1510-1519_14"
    INDEX 01 00:19:02
  TRACK 15 AUDIO
    TITLE "P1Q_t_1510-1519_15"
    INDEX 01 00:19:23
  TRACK 16 AUDIO
    TITLE "P1Q_t_1510-1519_16"
    INDEX 01 00:22:04
  TRACK 17 AUDIO
    TITLE "P1Q_t_1510-1519_17"
    INDEX 01 00:22:24
  TRACK 18 AUDIO
    TITLE "P1Q_t_1510-1519_18"
    INDEX 01 00:26:53
  TRACK 19 AUDIO
    TITLE "P1Q_t_1510-1519_19"
    INDEX 01 00:27:31
  TRACK 20 AUDIO
    TITLE "P1Q_t_1510-1519_20"
    INDEX 01 00:28:46
  TRACK 21 AUDIO
    TITLE "P1Q_t_1510-1519_21"
    INDEX 01 00:28:67
  TRACK 22 AUDIO
    TITLE "P1Q_t_1510-1519_22"
    INDEX 01 00:33:35
  TRACK 23 AUDIO
    TITLE "P1Q_t_1510-1519_23"
    INDEX 01 00:33:55
  TRACK 24 AUDIO
    TITLE "P1Q_t_1510-1519_24"
    INDEX 01 00:36:67
  TRACK 25 AUDIO
    TITLE "P1Q_t_1510-1519_25"
    INDEX 01 00:37:41
  TRACK 26 AUDIO
    TITLE "P1Q_t_1510-1519_26"
    INDEX 01 00:38:60
  TRACK 27 AUDIO
    TITLE "P1Q_t_1510-1519_27"
    INDEX 01 00:39:08
  TRACK 28 AUDIO
    TITLE "P1Q_t_1510-1519_28"
    INDEX 01 00:42:44
  TRACK 29 AUDIO
    TITLE "P1Q_t_1510-1519_29"
    INDEX 01 00:42:64
  TRACK 30 AUDIO
    TITLE "P1Q_t_1510-1519_30"
    INDEX 01 00:46:67
  TRACK 31 AUDIO
    TITLE "P1Q_t_1510-1519_31"
    INDEX 01 00:47:37
  TRACK 32 AUDIO
    TITLE "P1Q_t_1510-1519_32"
    INDEX 01 00:48:62
  TRACK 33 AUDIO
    TITLE "P1Q_t_1510-1519_33"
    INDEX 01 00:49:09
  TRACK 34 AUDIO
    TITLE "P1Q_t_1510-1519_34"
    INDEX 01 00:51:08
  TRACK 35 AUDIO
    TITLE "P1Q_t_1510-1519_35"
    INDEX 01 00:51:27
  TRACK 36 AUDIO
    TITLE "P1Q_t_1510-1519_36"
    INDEX 01 00:55:49
  TRACK 37 AUDIO
    TITLE "P1Q_t_1510-1519_37"
    INDEX 01 00:56:21
  TRACK 38 AUDIO
    TITLE "P1Q_t_1510-1519_38"
    INDEX 01 00:57:49
  TRACK 39 AUDIO
    TITLE "P1Q_t_1510-1519_39"
    INDEX 01 00:57:71
  TRACK 40 AUDIO
    TITLE "P1Q_t_1510-1519_40"
    INDEX 01 01:01:12
  TRACK 41 AUDIO
    TITLE "P1Q_t_1510-1519_41"
    INDEX 01 01:01:30
  TRACK 42 AUDIO
    TITLE "P1Q_t_1510-1519_42"
    INDEX 01 01:06:13
  TRACK 43 AUDIO
    TITLE "P1Q_t_1510-1519_43"
    INDEX 01 01:06:60
  TRACK 44 AUDIO
    TITLE "P1Q_t_1510-1519_44"
    INDEX 01 01:07:73
  TRACK 45 AUDIO
    TITLE "P1Q_t_1510-1519_45"
    INDEX 01 01:08:18
  TRACK 46 AUDIO
    TITLE "P1Q_t_1510-1519_46"
    INDEX 01 01:11:10
  TRACK 47 AUDIO
    TITLE "P1Q_t_1510-1519_47"
    INDEX 01 01:11:32
  TRACK 48 AUDIO
    TITLE "P1Q_t_1510-1519_48"
    INDEX 01 01:16:57
  TRACK 49 AUDIO
    TITLE "P1Q_t_1510-1519_49"
    INDEX 01 01:17:29
  TRACK 50 AUDIO
    TITLE "P1Q_t_1510-1519_50"
    INDEX 01 01:18:42
  TRACK 51 AUDIO
    TITLE "P1Q_t_1510-1519_51"
    INDEX 01 01:18:63
  TRACK 52 AUDIO
    TITLE "P1Q_t_1510-1519_52"
    INDEX 01 01:21:75
  TRACK 53 AUDIO
    TITLE "P1Q_t_1510-1519_53"
    INDEX 01 01:22:20
  TRACK 54 AUDIO
    TITLE "P1Q_t_1510-1519_54"
    INDEX 01 01:26:59
  TRACK 55 AUDIO
    TITLE "P1Q_t_1510-1519_55"
    INDEX 01 01:27:31
  TRACK 56 AUDIO
    TITLE "P1Q_t_1510-1519_56"
    INDEX 01 01:28:44
  TRACK 57 AUDIO
    TITLE "P1Q_t_1510-1519_57"
    INDEX 01 01:28:66
  TRACK 58 AUDIO
    TITLE "P1Q_t_1510-1519_58"
    INDEX 01 01:33:55
  TRACK 59 AUDIO
    TITLE "P1Q_t_1510-1519_59"
    INDEX 01 01:33:75
  TRACK 60 AUDIO
    TITLE "P1Q_t_1510-1519_60"
    INDEX 01 01:38:15
